<svg width="24" height="24" viewBox="0 0 24 24" fill="none" xmlns="http://www.w3.org/2000/svg">
<path d="M7.48047 9.34688H2.98047V4.84688" stroke="#5F6C72" stroke-width="1.5" stroke-linecap="round" stroke-linejoin="round"/>
<path d="M17.8305 6.16874C17.0651 5.40226 16.1561 4.79418 15.1555 4.3793C14.155 3.96442 13.0824 3.75087 11.9992 3.75087C10.916 3.75087 9.84347 3.96442 8.84289 4.3793C7.84231 4.79418 6.93334 5.40226 6.16797 6.16874L2.98047 9.34687" stroke="#5F6C72" stroke-width="1.5" stroke-linecap="round" stroke-linejoin="round"/>
<path d="M16.5195 14.6531H21.0195V19.1531" stroke="#5F6C72" stroke-width="1.5" stroke-linecap="round" stroke-linejoin="round"/>
<path d="M6.16797 17.8312C6.93334 18.5977 7.84231 19.2058 8.84289 19.6207C9.84347 20.0356 10.916 20.2491 11.9992 20.2491C13.0824 20.2491 14.155 20.0356 15.1555 19.6207C16.1561 19.2058 17.0651 18.5977 17.8305 17.8312L21.018 14.6531" stroke="#5F6C72" stroke-width="1.5" stroke-linecap="round" stroke-linejoin="round"/>
</svg>
